<svg xmlns="http://www.w3.org/2000/svg" viewBox="0 0 16.5 16.5"><defs><style>.cls-1{font-size:10.55px;fill:#574f7d;font-family:MyriadPro-Regular, Myriad Pro;}.cls-2{fill:#6c658d;}.cls-3{fill:none;stroke:#574f7d;stroke-miterlimit:10;stroke-width:0.5px;}</style></defs><g id="Layer_2" data-name="Layer 2"><g id="Layer_1-2" data-name="Layer 1"><text class="cls-1" transform="translate(6.15 11.96) scale(1.03 1)">F</text><path class="cls-2" d="M8.3,1.48s-.11-.08-.12,0l.12.12Z"/><path class="cls-2" d="M7.88,1.53a.56.56,0,0,0,.26.27c-.1-.13,0-.1-.16-.25s.09,0,.13,0,.07,0,0-.1-.19,0-.14.13S7.9,1.55,7.88,1.53Z"/><path class="cls-2" d="M5.22,4.46h0Z"/><path class="cls-2" d="M3.63,6.4a.05.05,0,0,0,0,0S3.61,6.4,3.63,6.4Z"/><path class="cls-2" d="M3.26,6.72l0,0S3.25,6.71,3.26,6.72Z"/><path class="cls-2" d="M5.22,4.46l-.08,0S5.19,4.48,5.22,4.46Z"/><path class="cls-2" d="M7.87,2.2a.13.13,0,0,0,0-.06v0Z"/><path class="cls-2" d="M5.83,3.56h0l0-.06Z"/><path class="cls-2" d="M6.31,2.9s.09.1.13.15A.17.17,0,0,1,6.39,3Z"/><path class="cls-2" d="M7.3,2V2Z"/><path class="cls-2" d="M5.43,4l0,0Z"/><path class="cls-2" d="M10.94,7V7Z"/><polygon class="cls-2" points="10.11 6.52 10.11 6.5 10.07 6.44 10.11 6.52"/><path class="cls-2" d="M2.78,7.44h0S2.78,7.42,2.78,7.44Z"/><path class="cls-2" d="M5.85,14c-.06-.15.18-.12.08-.29C5.94,13.75,5.76,13.87,5.85,14Z"/><path class="cls-2" d="M7.84,2.2l0,0S7.84,2.21,7.84,2.2Z"/><polygon class="cls-2" points="5.93 13.69 5.93 13.69 5.93 13.67 5.93 13.69"/><path class="cls-2" d="M2.57,9.39a.08.08,0,0,0,.06,0Z"/><path class="cls-2" d="M2.93,8l0,0Z"/><path class="cls-2" d="M2.84,10.13s0,0,0,0h0S2.82,10.16,2.84,10.13Z"/><polygon class="cls-2" points="3.02 10.88 3.04 10.86 3.03 10.84 3.02 10.88"/><path class="cls-2" d="M11.85,8,12,7.93C11.87,8,11.82,7.89,11.85,8Z"/><path class="cls-2" d="M7.81,2.15a.09.09,0,0,1,0,.05v0Z"/><path class="cls-2" d="M3.94,10v.09A.28.28,0,0,0,3.94,10Z"/><path class="cls-2" d="M10.17,11.82v0S10.17,11.8,10.17,11.82Z"/><path class="cls-2" d="M4,10.35s-.07.05-.08.08H4Z"/><path class="cls-2" d="M12,7.93h0Z"/><path class="cls-2" d="M11.46,7.54c0,.06.17-.06.27-.1s-.1.1-.17.17.24,0,.25,0a.08.08,0,0,1-.07,0c.16,0,.07.18.27.21l0,0a.85.85,0,0,1,.24-.08s.13.06,0,.1-.05,0-.09,0l.06,0c-.16.08-.07,0-.2,0,.08.07.24.15.2.23s-.08-.15-.22,0L12,8c-.25.12,0-.06-.26.06,0,.13.11.12.07.25s.14,0,.23,0c.19.19-.42.17-.19.29s.33.06.21.16l-.19,0c0,.12.28.09.14.21S12,8.85,12,8.86s.1.07.09.14h-.17a2.76,2.76,0,0,1,.1.47c-.05,0-.09-.06-.15,0,0,.21-.14.39-.3.52l.1.12s-.07,0-.09,0,.09.05.12.1-.1,0-.12,0c.06.17.06.47-.15.5l0,0c-.11.06.19.27,0,.28v0c-.18.15-.25.45-.54.43.13.17-.23.09,0,.32-.2,0-.21-.08-.41,0s.06.18,0,.25l-.1-.12,0,.18-.15-.12,0,.07s.08,0,.1.06-.24.05-.29,0l-.11.23c0-.06,0-.09,0-.14,0,.19-.11-.13-.12.05,0,0,0,.08.06.11a.21.21,0,0,0-.26.09l0-.11c-.15.06-.27.21-.44.28.08,0,.14.19.1.23l-.08-.14c0,.11.07,0,.06.18s-.12-.16-.11-.22L9,12.47a1,1,0,0,1,0-.13c0,.11-.19-.09-.17.08l0,0a2.9,2.9,0,0,0-.36.2c0,.13,0,.12,0,.24s-.27-.08-.39,0S8,12.9,8,13c0-.12-.16-.08-.11-.18a1,1,0,0,0-.37.19c0,.05.06.07,0,.12s-.09,0-.09-.11h0c-.21.22-.52-.33-.67-.07h0l-.19.13c-.08,0,.06-.1,0-.18-.21.19-.28-.06-.45,0,0-.38-.4-.09-.44-.38l0,.08c-.08.06,0-.07,0-.1s0,.09,0,.12c-.36-.06-.52-.49-.67-.79-.06-.11-.4.25-.35,0l.16-.07c-.31-.09-.3-.43-.56-.59,0,0,.08,0,.1,0S4.18,11,4.09,11s.08,0,.12-.09-.2-.07-.1-.14,0,0,0,0,0-.17-.16-.09c0-.11-.12-.16-.06-.26-.17,0,0-.19-.19-.15.22,0,.14-.21,0-.26.07,0,.06-.06.15-.06s-.06-.12-.18-.09c.26-.16-.25-.26.1-.36a1.54,1.54,0,0,1-.24-.62c.22,0,0,.22.24.23-.08-.19-.26-.32-.18-.51,0,0,.09,0,.13.07-.07-.21.07-.36,0-.55,0,0,0,0,.05,0s0-.07-.05-.09l0,0c-.16,0-.27-.21-.34-.24.26.14.12-.15.45,0a.24.24,0,0,0-.12-.08s.07,0,.13,0c0-.13-.13-.12-.09-.23s0,0,.11.08-.15-.17-.08-.25.07,0,.06,0c0-.15-.14-.36,0-.48.18.14.09,0,.27,0V7h-.1c0-.07,0-.2,0-.24l0,.09,0-.15-.11,0c0-.12-.21-.11-.1-.18s0-.08.16-.06h0c0-.06-.06-.14,0-.17s.16.13.2.14c-.11-.12.08-.19,0-.33a.35.35,0,0,0,.12.1l-.08-.1c.06,0,.08,0,.14,0S4.35,6.06,4.52,6c0,0,0,0,0,0s.1-.27.23-.34c.18.09,0,.12.12.18.09-.17.07-.45.23-.56h0c-.18-.19.19,0,.16-.17,0,0,.09.12.07.09s.13-.24.19-.44l0,.06c.1,0,.16-.13.24-.17s0-.09-.09-.13c.46.06.17-.51.57-.47,0,0,0,.09,0,.08L6.35,4c-.1-.06-.07,0-.16-.05a.17.17,0,0,1,0-.18c0,.12.14.12.21.13L6.3,3.82c.22.05-.16-.17,0-.19l0,.05c0-.07,0-.15,0-.19s0,.09.1.16-.1-.29,0-.26,0,.09,0,.14c.17,0,.14,0,.2,0h0l.14-.06H6.79c-.21-.3.08-.2,0-.45.09.24.09.09.2.2s.12,0,.14,0c-.05-.12.14,0,.06-.2,0,0,0-.06.13,0,0-.09-.08,0-.12-.08-.06-.2.34-.11.27-.4s-.1-.3-.07-.46c.09,0,.12.14.12.14a.15.15,0,0,0,.13-.17s.06,0,.12.06S7.63,2,7.74,2l.12.16c0-.08,0-.19,0-.27S7.92,2,8,2s.07-.21,0-.31H7.85s.1.06.11.09-.1.05-.14,0V1.79c-.26-.12-.08.19-.16.26L7.52,1.9l.07.18c-.06,0-.16-.06-.15-.12s0,.09-.12.08,0,0,0,0v.1S7.18,2,7.23,2c-.18,0,0,.26-.16.21v0c-.06.18.11.1.17.32l-.36-.16L7,2.47s0,0-.09,0c0,.12.06,0,.12.12-.17,0-.1.24-.31.11.08.09.13,0,.13.11-.22-.14,0,.12-.17.11s0-.12-.14-.13c.15.18-.13.09-.14.17.14.12,0,.17,0,.3,0,0-.21.11-.33.15l0,0c.13.13,0,.2,0,.29a.3.3,0,0,1-.11-.18l0,.06a.13.13,0,0,1,0,.14l-.09-.1c0,.08,0,.26-.16.29.09.09.33.16.31.32-.06,0-.15-.11-.15-.16s0,.07,0,.07l0-.12c-.08,0,0,.09,0,.12s-.08,0-.13-.08.06,0,0-.05a.23.23,0,0,1-.2,0s.1.09.08.12-.11-.05-.19,0-.06.07,0,.17-.08,0-.12,0-.15.19,0,.25h0c0,.23-.31.21-.37.39l0,0c0,.12-.12.2-.09.33s-.11,0-.15-.06,0,.13-.12.17c0-.12-.08,0,0-.1-.1,0-.18,0-.14.19-.07-.11-.17,0-.17,0h.11a.29.29,0,0,1-.09.12L4.1,5.36c-.3.06.05.52-.32.46.06.11.13-.05.21.07-.07.07-.33,0-.35.05s.14.24,0,.33c.06,0,.21.08.2.2s-.27,0-.29-.1,0,0,0,0,0-.09-.08-.09l.05,0c-.08,0-.14.15-.21.07,0,.1.07.08.12,0-.14.07-.1.18-.21.28,0,0,.11,0,.1,0s.07.13,0,.26-.19-.11-.18,0-.15,0-.18-.09c.06.16-.16.19-.2.25l0-.08a.13.13,0,0,1,0,.11H3s0,.06-.09,0,.19,0,.27.15,0,.16-.14.13c.1-.13-.16,0-.14-.17a.1.1,0,0,1,0,.1s0,0,0,0c-.18.11.15.12.1.27-.08,0-.17,0-.16,0s.15,0,.2.08,0,.12,0,.17l0,0C3.05,8,3,8,3,8.1S3,8,3,8c.14.11-.19.14-.11.27s-.16,0-.21,0-.14.12-.06.26c.12,0,.09,0,.19.07l0-.22.15.16c0-.06,0-.14,0-.18s.06.07.16.05c-.19.06.08.18,0,.27l-.29,0c-.15.15.12.29.05.48l0-.06c.11,0,0,.12.06.19a.3.3,0,0,0-.2.06c.08,0,0,.15.2.16l-.13.1c0,.17.3.16.28.31-.11,0-.17.05-.26,0,0,.06,0,.11.06.1s.15.12.07.18.15,0,.15.06H3s.09.08.18,0c-.27.21.12.4-.09.61a2.49,2.49,0,0,1,.19.3s0,0,0,0c0,.16.3,0,.26.15s-.11,0-.14,0c-.29.15.11.15,0,.33h0c-.06.12.2.12.25.25l0,0a.77.77,0,0,1,.43.18c-.12.05-.09,0-.18.09s.16-.13.26-.06,0,.17-.14.26l-.07-.08c-.11.15.09.11.1.17l-.06,0c.13.11.28,0,.39.13l0-.06c.21-.07,0,.14.15.1l-.11.16a3.92,3.92,0,0,1,.4.06.88.88,0,0,1-.42,0c0,.06.19.14.28.09s-.09,0-.09,0a.36.36,0,0,1,.38,0c-.24.3.22.27.16.57.28,0,.42.27.71.33,0-.31.08,0,.15-.28.06,0,.08,0,.08,0l.15.22C6.11,14,6,14,6,14s0,.14.12.24c0-.11.08-.14.16-.09L6.18,14c.22-.13.14.28.37.14l-.07.09c.11,0,.4,0,.49-.23,0,0,0,.12,0,.14.26,0,.52-.29.72-.17v.08s.05-.15.12-.09,0,.08,0,.08.09-.15.15-.12l0,.09c.25.05.3-.27.47-.37a.33.33,0,0,0,.34.24v0c.27,0,.37-.32.57-.49.23.17.51-.11.79-.11-.06,0-.08-.15,0-.19s.06-.21.15,0h0c.14.15.22,0,.3,0l-.12-.23c.42.19.43-.47.74-.28,0-.09.06-.14.06-.23l.09.11a.82.82,0,0,0,.35-.3l0,.1c.1-.07-.18-.39-.12-.47l.18.12c.13-.14.41-.19.37-.47,0,0,.07.06.06.09s.33-.23.07-.36c.16.1.13-.17.1-.3l.12.08c-.11-.17-.15-.19-.14-.32s.11,0,.06,0c.11,0-.08-.12,0-.2l.07.08c0-.09,0-.1-.07-.19s.1-.16.23-.13c-.07,0-.15-.13-.09-.17a.13.13,0,0,1,.08.05c.14-.13-.08-.29.08-.36h.09c0,.14-.08.24-.09.23s.18-.07.32.07c-.06-.12-.22-.32-.14-.41h.05v0s0-.05,0-.07A.26.26,0,0,0,13,9.51c.11,0,.09-.12.1-.17-.14,0-.11-.09-.23,0s0,0,0,0,0,0,0,0h0l0,.14c-.06-.06-.11-.11,0-.16l-.21-.11c.2,0,.33-.17.45-.18-.06-.18,0-.43-.3-.52,0,0,.08-.06.12-.08s0,.06.06.07,0-.28-.23-.29c.07-.12.18,0,.13-.11l.06,0c.24-.41-.54-.42-.32-.87,0,0,0,0,0,.07a.85.85,0,0,0-.3-.57,2.17,2.17,0,0,1-.45-.53c-.09-.11-.16,0-.26,0l0-.15-.19.12c-.18.07-.23-.46-.51-.23l0,.1c-.08,0-.25.07-.25,0s0,.11-.05.06l0-.08-.17.18c-.17,0-.07-.32-.33-.22-.1.07-.13.35-.07.36a.13.13,0,0,1,.15.06l0,.07a1.51,1.51,0,0,0,.41.5.78.78,0,0,1,0-.16l.07.1,0,0c.06.08,0,0,0-.08a.42.42,0,0,0,.07.11.88.88,0,0,1,0-.23c0,.09,0,.18.06.23,0-.11-.07-.2,0-.27.06.09.05.18.08.09a.23.23,0,0,1,0,.12c0-.07.08,0,.1-.15,0,.13.14,0,.1.19,0-.05.1-.15.14-.15-.13.23.12,0,0,.31.13-.2.18,0,.31-.1l0,0s0,.1,0,.15c.13-.15.22-.13.34-.17-.09.17-.19.13-.31.27.11-.12.18,0,.27-.14a.5.5,0,0,1-.13.19c.2-.14.06,0,.2,0-.06.13-.18.14-.08.16A.18.18,0,0,1,11.46,7.54ZM12,9.48h0v0Zm0,.19,0-.08s.09,0,.08,0S12,9.65,12,9.67Zm1-.22s0,.05,0,.05a.08.08,0,0,0,0-.07h0Z"/><path class="cls-2" d="M12.86,9.35v0l0,0,0,0Z"/><path class="cls-2" d="M5.26,4.45h0Z"/><polygon class="cls-2" points="10.3 11.63 10.32 11.66 10.31 11.63 10.3 11.63"/><path class="cls-2" d="M6.38,3.89h0Z"/><path class="cls-2" d="M6.72,3.51l.08,0Z"/><path class="cls-2" d="M7,3.24l0,0H7Z"/><path class="cls-2" d="M3.85,8.18h0S3.86,8.21,3.85,8.18Z"/><path class="cls-2" d="M4.2,6.48l0,.09S4.27,6.52,4.2,6.48Z"/><polygon class="cls-2" points="3.94 9.96 3.93 9.96 3.94 9.97 3.94 9.96"/><path class="cls-2" d="M4.19,6.63s0,0,0-.06S4.18,6.6,4.19,6.63Z"/><path class="cls-2" d="M8.1,1.93v0h0Z"/><path class="cls-2" d="M8.09,1.9v0S8.08,1.89,8.09,1.9Z"/><path class="cls-2" d="M8.09,1.82v.05S8.12,1.85,8.09,1.82Z"/><path class="cls-2" d="M7.73,2.3l0,0Z"/><path class="cls-2" d="M7.64,2.43s.15,0,.15-.07l0,0C7.81,2.4,7.6,2.36,7.64,2.43Z"/><path class="cls-2" d="M6.74,2.57l.12-.07c-.06,0-.14,0-.11-.1C6.52,2.43,6.86,2.45,6.74,2.57Z"/><path class="cls-2" d="M6.44,2.84c0-.07-.06,0-.08-.07S6.37,2.85,6.44,2.84Z"/><path class="cls-2" d="M4.57,5.08,4.48,5S4.52,5,4.57,5.08Z"/><polygon class="cls-2" points="4.74 5.92 4.83 5.93 4.76 5.84 4.74 5.92"/><polygon class="cls-2" points="3.81 5.66 3.81 5.63 3.79 5.73 3.81 5.66"/><path class="cls-2" d="M2.86,10.78,3,10.72S2.79,10.73,2.86,10.78Z"/><path class="cls-2" d="M4.13,12.71c0,.07,0,.16.06.13S4.16,12.72,4.13,12.71Z"/><polygon class="cls-2" points="10.58 12.98 10.57 13.05 10.62 12.97 10.58 12.98"/><rect class="cls-3" x="0.25" y="0.25" width="16" height="16" rx="2.87"/></g></g></svg>