<svg xmlns="http://www.w3.org/2000/svg" viewBox="0 0 111.82 26.09"><defs><style>.cls-1{font-size:24px;fill:#4f3a65;font-family:MyriadPro-Regular, Myriad Pro;}.cls-2{letter-spacing:-0.03em;}.cls-3{letter-spacing:-0.01em;}.cls-4{letter-spacing:-0.01em;}.cls-5{letter-spacing:0em;}.cls-6{letter-spacing:0em;}.cls-7{letter-spacing:-0.01em;}.cls-8{fill:#655379;}</style></defs><g id="Layer_2" data-name="Layer 2"><g id="Layer_1-2" data-name="Layer 1"><text class="cls-1" transform="translate(0 20.09)"><tspan class="cls-2">F</tspan><tspan x="10.85" y="0">u</tspan><tspan class="cls-3" x="24.07" y="0">r</tspan><tspan class="cls-4" x="31.8" y="0">a</tspan><tspan class="cls-5" x="43.18" y="0">w</tspan><tspan class="cls-6" x="60.74" y="0">a in</tspan><tspan class="cls-7" x="96.33" y="0">c</tspan><tspan x="106.85" y="0">.</tspan></text><path class="cls-8" d="M103.76,20.31c0-.11-.11-.27-.23-.16l0,.34Z"/><path class="cls-8" d="M102.57,20.2a.72.72,0,0,0,.06.79c0-.36.13-.26.14-.69a.21.21,0,0,1,.32.11c0-.1.24,0,.22-.26a.45.45,0,0,0-.66.25C102.57,20.36,102.58,20.26,102.57,20.2Z"/><path class="cls-8" d="M88.24,21.78l.09,0Z"/><path class="cls-8" d="M79.19,21.74c.07,0,.1,0,.11-.07S79.18,21.71,79.19,21.74Z"/><path class="cls-8" d="M77.65,21.4l.09,0S77.67,21.38,77.65,21.4Z"/><path class="cls-8" d="M88.24,21.78l-.25-.1C88,21.79,88.12,21.76,88.24,21.78Z"/><path class="cls-8" d="M101,21.7a.45.45,0,0,0,.1-.13l-.11.08Z"/><path class="cls-8" d="M92.2,21.46h.08a.5.5,0,0,0,0-.13Z"/><path class="cls-8" d="M95.2,21.25c-.07,0-.06.27-.08.4,0-.12.07-.18.13-.21A.59.59,0,0,0,95.2,21.25Z"/><path class="cls-8" d="M99.94,20.83l.07-.06Z"/><path class="cls-8" d="M90,21.43a.62.62,0,0,0,0-.1A.17.17,0,0,0,90,21.43Z"/><path class="cls-8" d="M4.75,25.31v0S4.73,25.31,4.75,25.31Z"/><path class="cls-8" d="M1.07,24.81l.05,0c0-.05,0-.1-.05-.15Z"/><path class="cls-8" d="M74.82,21.08h0C74.91,21.06,74.86,21.06,74.82,21.08Z"/><path class="cls-8" d="M48.88,21.7c.3.24-.47.33,0,.6C48.82,22.19,49.25,21.86,48.88,21.7Z"/><path class="cls-8" d="M100.87,21.69l-.13,0A.33.33,0,0,0,100.87,21.69Z"/><path class="cls-8" d="M48.86,22.3h0l0,0Z"/><path class="cls-8" d="M68.31,21.36a.75.75,0,0,0,.07.12A.19.19,0,0,0,68.31,21.36Z"/><path class="cls-8" d="M73.16,21.68l-.12,0A.24.24,0,0,0,73.16,21.68Z"/><path class="cls-8" d="M65.8,21.79c-.07,0-.09-.06-.18,0l0,0S65.72,21.75,65.8,21.79Z"/><path class="cls-8" d="M63.18,21.83s0,0,0,.06l.08,0Z"/><path class="cls-8" d="M12.5,24.62a1,1,0,0,1-.13-.25C12.42,24.56,12,24.64,12.5,24.62Z"/><path class="cls-8" d="M100.9,21.55a.15.15,0,0,1,0,.14l.08,0S100.93,21.57,100.9,21.55Z"/><path class="cls-8" d="M65.72,24l-.42,0A2.67,2.67,0,0,0,65.72,24Z"/><path class="cls-8" d="M31.29,24.28l-.1,0A.13.13,0,0,0,31.29,24.28Z"/><path class="cls-8" d="M64.06,24a.5.5,0,0,0-.23-.19.18.18,0,0,0,0,.07Z"/><path class="cls-8" d="M12.37,24.36h0Z"/><path class="cls-8" d="M9.67,25.11c.39,0,.17-.36.24-.58.47-.12.23.26.4.45.28-.11.5-.46.72-.45,0,.06.06.08,0,.16.3-.3.92-.05,1.28-.42a.2.2,0,0,1,0,.09,1.18,1.18,0,0,1-.07-.5c.18,0,.32-.24.4,0-.11,0-.12.09-.17.17l.18-.11c.18.34-.25.12-.24.38.36-.12.78-.41,1.06-.32.06.34-.65.13-.27.42l-.43-.12c.34.53-.27,0,.05.53.57.09.63-.18,1.2-.09.12-.19-.05-.28.07-.47.79-.35.66.85,1.23.38.15-.22.2-.66.63-.43l-.14.38c.55,0,.3-.56.88-.31-.1.16-.43.14-.34.18.38.3.26-.22.54-.22l.07.33c.58-.06,1.22-.31,1.87-.39,0,.11-.15.21,0,.32a5.72,5.72,0,0,1,2.53.2l.3-.3a.12.12,0,0,1,.06.19c.3.11,0-.19.15-.3a.14.14,0,0,1,.13.25,2.72,2.72,0,0,1,2.1-.25l-.11.08c.45.12.49-.6.91-.34l-.08.06c1,.11,2-.18,2.77.25.13-.42,1,.18,1-.41.56.28.4.39,1.18.57.21,0,.3-.37.56-.44v.31l.34-.33.19.37.24-.08c-.09,0-.21-.14-.19-.23a.87.87,0,0,1,.93.36l.88-.27c0,.12-.16.17-.28.25.47-.33.09.32.52,0-.06-.06,0-.18,0-.24a1.46,1.46,0,0,0,1.07.09l-.06.21c.66,0,1.38-.12,2.12-.13a.26.26,0,0,1,0-.5l.1.32c.13-.2-.23-.12,0-.37.28,0,.19.37,0,.48l.33-.12c0,.1-.06.15-.08.28.14-.21.59.31.78,0l0,.1c.74,0,1.07-.13,1.67-.16,0-.28.25-.22.42-.45a5.57,5.57,0,0,0,1.47.26c.37-.14.11-.24.27-.41,0,.26.56.23.29.42a7,7,0,0,0,1.62-.29c-.09-.1-.19-.15-.14-.23s.34.1.32.22l0,0c.9-.4,2.11.71,2.82.17l0,0,.75-.29c.34,0-.21.2.05.36.8-.44,1.28,0,1.94-.26.53.75,1.83-.08,2.53.39l0-.18c.18-.17.22.1.36.14,0-.14-.2-.16-.09-.25a20.37,20.37,0,0,1,4.71.34c.57,0,.31-.92,1-.51l-.2.33c1.15-.41,2.36,0,3.48-.37-.06.07-.06.17-.17.17.24.24.88,0,.88-.19.17,0,0,.17.15.27s.6-.32.73-.08c0,0-.07.08-.11.1.15-.12.72,0,.57-.26.43.13.81-.13,1.15,0,.21-.32.72.13.79-.31,0,.46.75.36,1,.14-.09.14.23.14.13.33.31,0,.59-.1.53-.33.57.53,1.13-.45,1.45.23a21.12,21.12,0,0,1,2.56-.55c0,.45-.9.06-.86.53.77-.2,1.21-.59,2-.49.2.06-.11.2-.18.27a20.19,20.19,0,0,0,2.18-.24c0,.05-.07.09-.14.13.13,0,.32.06.3-.14l-.13,0c-.22-.29.53-.63.55-.78-.22.59.68.13.32.88a.28.28,0,0,0,.18-.28c.14,0,.18.12,0,.28.48-.12.31-.33.75-.34,0,.1-.09.14-.14.26a.9.9,0,0,1,.82-.32c0,.06,0,.14-.09.14.64,0,1.08-.53,1.79-.36-.21.44.24.14.28.52l.37-.12-.15-.18c.33,0,.62-.28.9-.16l-.24.16.62-.08L79.11,23c.33-.19,0-.47.4-.37-.09,0,.33,0,.5.22h0a.57.57,0,0,1,.58-.16c.06.11,0,.41,0,.49.16-.32.77-.1,1-.44a.42.42,0,0,0,0,.32l.13-.26c.15.08.18.12.15.28.46,0-.15-.47.4-.28,0,0,0,.06-.11.1.55.1,1.06-.18,1.56-.06.15.37-.44.1-.27.41a11,11,0,0,1,2.21-.39l-.13,0c.09-.53.52.25.88,0-.09,0-.11.29-.09.23A4.78,4.78,0,0,0,88,22.68l-.09.14a7.32,7.32,0,0,0,1.06.11c.09-.14.26-.12.15-.31,1,.76,1.8-.43,2.66.2-.11,0-.24.13-.16.13l.71-.14c-.06-.23-.09-.14-.25-.32a.6.6,0,0,1,.47-.25c-.32.16,0,.37.15.49,0-.07,0-.15,0-.22.39.4,0-.47.57-.21l0,.12c.19-.07.36-.23.57-.21.1.26-.2.13-.2.35.29,0,.54-.53.82-.28-.12.08-.29.09-.41.17.3.3.33.22.55.25h0l.51.1-.14-.08c.31-.72.74-.19,1.17-.7-.42.48,0,.26,0,.56.13.07.34.14.29.23.2-.27.42.14.7-.26,0,.09.25,0,.24.22.3-.13-.1-.16-.09-.29.4-.4,1.18.21,1.75-.4.53-.33.54-.67,1-1,.22.1,0,.38,0,.38a.83.83,0,0,0,.76-.23c0,.1,0,.15.17.22.2-.09,0-.38.35-.34a1.47,1.47,0,0,1-.08.44c.22-.17.4-.43.62-.62.13.14-.06.3-.11.44.26-.18.69-.44.67-.72l-.22,0c.1,0,.14.2.09.27-.17.3-.39.06-.44,0l.16-.13c-.4-.45-.69.37-1.07.46v-.44l-.26.45c-.11-.07-.24-.28-.08-.39-.32-.12-.18.21-.48.06a0,0,0,0,1,0-.07l-.21.2c0-.1-.13-.27,0-.26-.51-.1-.65.51-.9.25l0,0c-.6.3,0,.32-.39.78L98,21.1v.31c-.07,0-.21,0-.21-.12-.2.25.07.12,0,.34-.38-.2-.88.29-1-.18-.08.25.34.13,0,.34-.18-.5-.39.15-.73-.05.06-.28.36-.17,0-.38-.12.48-.58,0-.82.08,0,.37-.53.21-.94.35,0-.12-.81-.15-1.21-.26v-.06c-.06.36-.47.31-.77.39a.43.43,0,0,1,.22-.41h-.28a.44.44,0,0,1-.33.23l.06-.27c-.37,0-.74.33-1.22.15,0,.26.39.71-.12.89,0-.14,0-.38.09-.43,0,0-.15.11-.24,0l.2-.23c-.22-.1-.11.2-.29.17,0-.19-.13-.14-.1-.29s.15.08.22,0a.76.76,0,0,1-.52-.3c0,.11,0,.27-.14.29-.38,0-.13-.23-.35-.33-.09.13-.33,0-.34.29-.1,0-.13-.14-.17-.22-.19.14-.9.05-.68.37h.05l0,0h0c-.63.3-1.31-.15-1.94,0v-.1c-.38.12-.84.08-1.11.3-.11,0-.26-.18-.21-.3-.29.08-.32.19-.74,0,.29-.17-.1-.15.3-.13-.38-.08-.46-.23-.86,0,.13-.25-.29-.31-.46-.23l.26.18a1.69,1.69,0,0,1-.55,0l.09-.34c-.77-.39-1.37.71-2,0-.2.24.42.16.24.44-.35,0-.72-.51-.83-.51-.49-.18-.45.49-1,.37a.38.38,0,0,1-.25.55c-.35,0-.44-.49-.22-.59s.13,0,.13.07.26-.1.12-.23l0,.12c-.17-.11-.66-.09-.54-.29-.27.12-.12.2.08.25-.45-.16-.71,0-1.17-.1.07.07.14.2.07.2-.68-.13-.3.23-.76.29-.26-.17.09-.43-.37-.27-.29-.12-.07-.32,0-.41-.43.23-.8-.14-1-.18l.22-.1a.76.76,0,0,1-.35.06l.13.24c-.13,0-.24,0-.24-.14-.13.16.11.39-.16.61-.18-.12-.53.14-.59-.18.55.1-.07-.31.4-.37a.47.47,0,0,1-.33,0s0-.07,0-.09c-.53-.27-.24.36-.78.37.06-.18-.13-.34-.22-.3.22,0,.11.29-.09.43-.35-.13-.38.11-.57.1l.21.06c-.07.18-.24.16-.48.22,0-.14.22-.1.13-.16-.27.32-.61-.31-1-.1-.17-.11,0-.33-.17-.41-.42.24-.46-.23-.9,0,.13.24.15.18-.16.42l.73-.18-.47.35c.22,0,.46-.15.6-.12-.23.2-.2.14-.1.34-.3-.35-.59.22-.94,0v-.59c-.52-.26-.92.32-1.61.18l.22.1c-.09.23-.42,0-.64.14,0-.2-.12-.27-.21-.39,0,.14-.5,0-.56.39l-.3-.26c-.55-.1-.62.57-1.15.52.15-.22-.09-.36.26-.52-.17,0-.33,0-.33.11-.11-.12-.49.27-.65.09-.08.08-.1.29-.3.28a.16.16,0,0,1,0-.1c0,.1-.3.14-.13.35-.55-.6-1.52.07-2-.45a11,11,0,0,1-1.2.16c0-.06,0-.1.07-.08-.49-.17-.29.58-.84.38-.29-.32.29-.18.11-.3-.08-.64-.66.1-1-.27l.08,0c-.28-.22-.68.26-1.14.22a.16.16,0,0,0,0-.1,2.66,2.66,0,0,1-1.35.55c.14-.25.2-.13.11-.39-.19,0,.07.41-.33.49-.13-.14-.42-.25-.46-.53l.38,0c-.2-.35-.49,0-.69,0l0-.15c-.58.06-.58.45-1.19.43l.06.12c-.33.39-.28-.22-.62.08l-.1-.4a6.39,6.39,0,0,1-1.17.48,3.06,3.06,0,0,1,1-.63c-.22,0-.75,0-.86.23.09,0,.2-.13.29-.07a1.34,1.34,0,0,1-1.06.47c.06-.77-1.15-.18-1.48-.77-.77.3-1.54-.09-2.44,0,.33.59-.27,0-.2.63-.21,0-.29,0-.31,0L48.21,22c-.15-.18.2-.14.18-.28-.46,0-.2-.25-.5-.41.06.22-.16.31-.42.24l.37.27c-.64.34-.56-.5-1.21-.17l.2-.2c-.33.12-1.23,0-1.55.52-.06-.07-.14-.24,0-.29-.8-.06-1.77.55-2.39.26l.06-.15c-.15.05-.26.29-.44.14,0-.06,0-.15,0-.16s-.39.27-.59.18l.17-.17c-.78-.18-1.19.43-1.84.54,0-.44-.62-.57-.92-.64v-.06a8.31,8.31,0,0,0-2.37.58c-.53-.47-1.76-.18-2.61-.43.13.08,0,.34-.16.39s-.53.31-.51-.09h.07c-.16-.4-.56-.29-.87-.29l0,.53c-.84-.76-2.16.31-2.62-.37-.2.14-.44.14-.64.27v-.28a5.77,5.77,0,0,0-1.51,0l.13-.2c-.38,0-.46.82-.82.85l-.11-.43c-.67,0-1.36-.34-2,.06,0-.07,0-.19.13-.21-.31,0-1.22-.27-1.09.31,0-.37-.7,0-1,.15l0-.28c-.3.36-.31.46-.73.56-.1,0-.1-.22,0-.15-.34-.14-.26.27-.67.13l.15-.18c-.35,0-.32.08-.5.29a.59.59,0,0,1-.72-.32c0,.16-.23.37-.43.3a.17.17,0,0,1,.08-.19c-.59-.18-.86.34-1.26.07a.24.24,0,0,0-.07-.16,4.16,4.16,0,0,1,.79,0c0-.26-.38-.3-.09-.66-.29.2-.79.63-1.16.51a.28.28,0,0,1,0-.08l0,0a.27.27,0,0,0-.23,0,.87.87,0,0,0-.3-.07c-.05-.21-.43-.11-.62-.12,0,.29-.22.24,0,.47,0,0,0,0,.15,0a.11.11,0,0,0,.08,0v0l.46,0c-.14.15-.29.27-.5.12-.09.18-.19.37-.25.46-.26-.39-.76-.6-.83-.84-.56.17-1.33.13-1.67.66-.16.07-.19-.15-.25-.23.09,0,.2,0,.25-.12-.32.14-1,.06-1,.43-.41-.16.22-.34-.34-.27l.07-.11c-1.11-.58-1.75,1-3,.24.08.05.13.07.15.13-1.41-.29-2.85.42-4.27,0-.41-.06-.43.18-.65.38l-.12-.28-.36.39c-.53.33-1.12-.58-1.78,0l.14.18c-.27,0-.8.29-.81,0,0,.05,0,.23-.16.15l-.05-.15-.57.43c-.52,0-.08-.63-.82-.45-.26.15-.62.69-.48.76a.31.31,0,0,1,.36.15l-.21.15c.1.46.1,1,.74,1.09l.3-.39.19.18L2,25.77c.24.15.3-.06.4-.23a.4.4,0,0,0,.23.2l.26-.53c.09.16-.08.39.2.42.13-.24-.27-.35,0-.56.24.16.23.34.41.12a.21.21,0,0,1,0,.26c.16-.18.5-.17.56-.43.25.21.66-.2.72.24a1,1,0,0,1,.47-.45c-.26.57.7-.06.69.51.19-.5.88-.32,1.3-.62,0,0-.06.12-.11.1.26,0,.35.16.52.23,0-.39.39-.51.59-.77.34.36-.16.47,0,.83,0-.32.52-.35.4-.61.25.22.21.1.36.42,0-.49.21-.09.4-.4.36.22.11.45.49.28C10,24.93,9.67,25.11,9.67,25.11Zm9.21-1h0l-.19,0Zm.78,0h-.34c0-.1,0-.2.08-.19S19.54,24,19.66,24.06ZM18,22.14c.12,0,.16,0,.18.07l-.22,0v0A.34.34,0,0,1,18,22.14Z"/><path class="cls-8" d="M17.75,22.51l-.05,0,.08.06,0-.09Z"/><path class="cls-8" d="M88.35,21.83h0s0,0,0,0S88.35,21.84,88.35,21.83Z"/><polygon class="cls-8" points="30.42 24.43 30.42 24.36 30.35 24.43 30.42 24.43"/><path class="cls-8" d="M92.65,22.73a.13.13,0,0,0,.06.07S92.68,22.76,92.65,22.73Z"/><path class="cls-8" d="M94.53,22.7l.27.08A1.07,1.07,0,0,0,94.53,22.7Z"/><path class="cls-8" d="M96,22.71c0-.06,0-.09,0-.13h0Z"/><path class="cls-8" d="M73.28,23.56h-.06C73.1,23.63,73.18,23.61,73.28,23.56Z"/><path class="cls-8" d="M80,22.8a1.2,1.2,0,0,1-.21.13C79.92,23,80,23,80,22.8Z"/><polygon class="cls-8" points="65.76 24.02 65.76 24.01 65.72 24.01 65.76 24.02"/><path class="cls-8" d="M79.48,22.93a.36.36,0,0,0,.32,0A.69.69,0,0,0,79.48,22.93Z"/><path class="cls-8" d="M102.2,21.25h.07a.09.09,0,0,1,0,0Z"/><path class="cls-8" d="M102.26,21.19l.06-.06S102.26,21.16,102.26,21.19Z"/><path class="cls-8" d="M102.45,21l-.13.13C102.38,21.11,102.45,21.09,102.45,21Z"/><path class="cls-8" d="M100.32,21.8v.1A.46.46,0,0,0,100.32,21.8Z"/><path class="cls-8" d="M99.76,22c.14,0,.4.11.57,0V21.9C100.28,22.08,99.84,21.8,99.76,22Z"/><path class="cls-8" d="M97.13,21.3h.48c-.1-.09-.23-.21,0-.28C97,20.8,97.75,21.23,97.13,21.3Z"/><path class="cls-8" d="M95.67,21.34c.24-.08,0-.15,0-.22C95.51,21.24,95.47,21.27,95.67,21.34Z"/><path class="cls-8" d="M85,21.65l0-.25C84.81,21.44,85,21.5,85,21.65Z"/><polygon class="cls-8" points="82.94 23.01 83.13 23.16 83.22 22.93 82.94 23.01"/><polygon class="cls-8" points="81.71 21.2 81.8 21.17 81.47 21.27 81.71 21.2"/><path class="cls-8" d="M63.64,21.58l.06.31C63.84,21.83,63.86,21.48,63.64,21.58Z"/><path class="cls-8" d="M55.84,22c-.08-.15-.31-.25-.44-.1C55.58,21.94,55.75,22.06,55.84,22Z"/><polygon class="cls-8" points="32.44 21.88 32.59 21.77 32.3 21.86 32.44 21.88"/><path class="cls-8" d="M6.59,23.79a1.47,1.47,0,0,0-.06-.23l.06.32Z"/><path class="cls-8" d="M6.4,23.21c0,.15.08.43.15.73-.06-.31,0-.19-.1-.56,0,0,0,.1.06.22,0-.08,0,.07,0-.13s-.08-.26,0,0C6.43,23.35,6.42,23.27,6.4,23.21Z"/><path class="cls-8" d="M5.56,22.86v0S5.56,22.87,5.56,22.86Z"/><path class="cls-8" d="M5.06,22.79s0,0,0-.07A.15.15,0,0,1,5.06,22.79Z"/><path class="cls-8" d="M4.91,22.45v0Z"/><path class="cls-8" d="M5.56,22.86l0-.09C5.55,22.87,5.55,22.84,5.56,22.86Z"/><path class="cls-8" d="M6.47,24a.34.34,0,0,0,0-.09V24Z"/><path class="cls-8" d="M5.7,22.56h0a.93.93,0,0,0,0-.14Z"/><path class="cls-8" d="M5.84,22.47s.06.27.08.39c0-.12,0-.17,0-.19S5.86,22.55,5.84,22.47Z"/><path class="cls-8" d="M6.19,22.9v0Z"/><path class="cls-8" d="M5.58,22.52a.46.46,0,0,0,0-.09Z"/><path class="cls-8" d="M1.73,25.54v-.05A.18.18,0,0,1,1.73,25.54Z"/><path class="cls-8" d="M1.25,24.22v0l0-.15Z"/><path class="cls-8" d="M4.69,22.13Z"/><path class="cls-8" d="M3.43,22.62c.07.24,0,.32.13.59C3.53,23.1,3.48,22.78,3.43,22.62Z"/><path class="cls-8" d="M6.46,24h0Z"/><path class="cls-8" d="M3.56,23.21h0v0Z"/><path class="cls-8" d="M4.4,22.37l0,.12A1,1,0,0,1,4.4,22.37Z"/><path class="cls-8" d="M4.73,22.7l0,0Z"/><path class="cls-8" d="M4.36,22.78s0-.06,0,0v0S4.34,22.74,4.36,22.78Z"/><path class="cls-8" d="M4.23,22.81v0Z"/><path class="cls-8" d="M2.11,25.32c0-.08,0-.16-.07-.25C2.09,25.27,2.09,25.34,2.11,25.32Z"/><path class="cls-8" d="M6.44,23.85a.43.43,0,0,1,0,.12h0A.36.36,0,0,0,6.44,23.85Z"/><path class="cls-8" d="M4.83,25l0,0S4.82,25,4.83,25Z"/><path class="cls-8" d="M3,25.07v0S3.05,25.1,3,25.07Z"/><path class="cls-8" d="M4.75,25a1.07,1.07,0,0,0-.06-.19.64.64,0,0,1,0,.07Z"/><path class="cls-8" d="M2,25.07Z"/><path class="cls-8" d="M2.05,25.75a5.42,5.42,0,0,0-.11-.56c0-.11.07.26.12.44,0-.09-.07-.43-.06-.42a.62.62,0,0,1,0,.16c-.05-.29,0,0,0-.39a.29.29,0,0,1,0,.09l-.11-.5s0-.23,0,0a1.55,1.55,0,0,1,0,.16v-.1c.08.33,0,.12.07.37,0-.12-.05-.4,0-.31.08.33,0,.12.08.41L2.05,25c.13.52,0,0,.12.52.05.09,0-.17,0-.08,0-.19-.06-.28-.09-.46,0-.34.21.82.14.38,0-.23-.13-.65-.06-.43l.08.38s-.1-.54,0-.3a1.06,1.06,0,0,1,0,.17c.08.3,0-.21,0-.22l.08.34c0-.06,0-.31,0-.38,0,.1,0,.21.07.31,0-.18.1,0,.18.21l-.05-.29a.69.69,0,0,1,.05.18c0,.11,0-.18-.06-.3a1.48,1.48,0,0,1,.06.25c0-.25,0-.54.06-.24v.09c.05.11-.1-.59,0-.33v.05c.08.12.08-.16.21.27-.09-.42.09.17,0-.41a5.36,5.36,0,0,0,.19.57S3,24.91,3,24.84l.06.3,0-.32.09.36V25.1a2,2,0,0,1,0-.22c0-.14.09.2.12.36V25a1.57,1.57,0,0,1,0,.25c0-.32.07.31,0,0,0-.06,0-.17,0-.24,0,.18.08.18.08.1l0,.21s0-.12.09-.12a3.51,3.51,0,0,1-.11-.49l.07.31c0-.19,0-.11-.07-.36a3.13,3.13,0,0,1,.1.47V25c0,.1,0,.15.06.27,0-.2.1.31,0,0l0,.09s0-.12,0-.14c-.06-.27,0-.22-.07-.44,0,.08.11.29.13.26a3.24,3.24,0,0,0-.07-.39,2.55,2.55,0,0,1,.1.4c0-.05,0-.06,0-.27s0-.15-.06-.23,0,.1.07.22v0c0-.39.27.7.19.17v0l0-.28s0,.19.08.34c0-.43.08,0,.05-.24.19.73.08-.07.22.39l0-.17c0-.17,0,.1,0,.13,0-.13,0-.15-.06-.25s.22.22.33.36-.18-.9-.05-.49l.06.32c0-.4.12,0,.1-.35a.52.52,0,0,1,0,.17c.07.23,0,0,0-.19,0,0,0,.17.06.27s0-.31,0-.08a.41.41,0,0,1,0,.1c0-.12,0,0,0-.25,0,.13,0-.13.06,0-.05-.31.07.14,0-.29.1.44.12.35.09.14,0,.13,0,.13.07.32,0,0,0-.1,0-.32.15.52,0-.44.13.23a2.56,2.56,0,0,1,0-.53c.09.44,0,.06.07.52,0-.19-.07-.58,0-.48a1.17,1.17,0,0,1,0,.27c0-.19.09,0,.07-.22a.5.5,0,0,1,0,.12s0,.06,0-.14v.05A7.64,7.64,0,0,1,5,23.69c.12.57.07.13.21.86,0,0,0-.13,0-.26,0,0,0,.11.06.26,0-.11-.06-.32,0-.32s0,.13.05.25c0-.19-.07-.38,0-.31s0,.14,0,.14-.06-.52,0-.34c.08.42,0,.13.12.5v-.12l0-.17s0-.27,0-.15l0,.15,0-.07,0-.14c0-.19-.1-.46-.06-.36a.8.8,0,0,1,.08.21h0c0-.12,0-.24,0-.15s.09.4.11.48c-.06-.31,0-.09,0-.42,0,.08,0,.27.06.31l0-.25a1.11,1.11,0,0,1,.07.26s-.11-.46,0-.26a.2.2,0,0,1,0,.09c0,.1,0-.17.07-.05.09.37,0,.1.07.4,0-.07,0-.45,0-.38l0,0c-.11-.52.08.25,0,0,0,0,.06.29,0,.23s0-.14,0-.31l0,.13c0,.12,0,.06.08.12a2,2,0,0,0-.06-.31c.22.75,0-.42.19.2,0,0,0,.12,0,.12v-.13a2.24,2.24,0,0,0-.08-.31,1.27,1.27,0,0,1,0-.24A3.06,3.06,0,0,0,6,23.8c0-.07,0-.14,0-.21.11.39-.1-.46,0-.19l0,.12c0-.07,0-.23,0-.19.06.26,0,.12.07.33,0,0-.09-.5,0-.24,0,.08,0,.08,0,.15.08.31.06.23.08.27h0l.06.13,0-.08c-.13-.69,0-.13-.06-.59.07.43,0,.25.11.55a1.17,1.17,0,0,1,.07.25c0-.24.06.18,0-.17a2.11,2.11,0,0,1,.07.25,1.48,1.48,0,0,0-.07-.29c0-.33.14.39.08-.07,0-.19-.08-.51-.09-.68,0,.15.07.35.07.35s.05.11,0,0c0,.08,0,.15.06.26s-.07-.35,0-.21l.07.38c0-.09,0-.27,0-.36,0,.17,0,.26.07.36a1.45,1.45,0,0,0,0-.42l0-.09a1.22,1.22,0,0,1,.06.27c0,.21,0-.08-.06-.18v-.06c-.14-.56,0,.1,0,.07l-.08-.41.06.34a2.62,2.62,0,0,1-.09-.39c-.06-.2,0,.15,0-.08a.64.64,0,0,0,0-.07l0,.13a1.93,1.93,0,0,1,0-.23c-.07-.23,0,.31,0,0v0a6.56,6.56,0,0,0,.12.65l-.18-.73.06.3s0,0,0-.15c0,.21,0,.13.06.32-.07-.26,0,.14-.12-.33,0,.23,0,.17.07.33-.12-.51,0,.09-.07-.14a1.74,1.74,0,0,0-.08-.36c.09.45,0-.09,0,0,.08.35,0,.15,0,.28,0-.12-.09-.19-.13-.31l0-.06c.08.36,0,.29,0,.37,0-.21-.06-.3-.07-.4h0a.85.85,0,0,1,0,.22l-.06-.27s0,.32,0,.15c0,.25.17.69.18.86,0-.13-.08-.36-.09-.42s0,.11,0,.06l0-.23c0-.1,0,.19,0,.17a2.92,2.92,0,0,1-.07-.29s0,.08,0,0a1.09,1.09,0,0,1-.09-.29,1.73,1.73,0,0,1,0,.29s0-.23-.09-.33c0,.14,0,0,0,.29a1.56,1.56,0,0,1-.06-.21,1.2,1.2,0,0,0,0,.35v0h0c0,.29-.1-.15-.1,0l0-.09a1.48,1.48,0,0,0,0,.28,2.17,2.17,0,0,1-.08-.29c0,.08,0,.19,0,0s0-.15,0-.12-.08-.24,0,0c0-.25-.08-.31-.07-.23l0,.17s0,0,0,0l-.07-.32c-.12-.39.08.68-.09,0,0,.23,0,.15.1.42,0,0-.15-.5-.15-.5-.07-.17.08.48,0,.36a3.64,3.64,0,0,1,.1.54A5,5,0,0,1,5,22.65s0,0,0,.07a.59.59,0,0,0,0-.22l0,.12a1.34,1.34,0,0,1-.1-.29.82.82,0,0,0,.06.24c-.06-.16,0,0-.08-.1,0,.06,0,.2,0,.2s0,.22,0,.28c-.06-.18-.09-.43-.08-.27a3.85,3.85,0,0,1-.09-.41c0,.23-.07-.13-.09-.17V22c0,.06,0,.06,0,.06l.06.23a.39.39,0,0,1,0-.13c0,.15.09.38.12.59,0-.12,0,.13-.07-.17,0,.09-.07-.31-.06-.37s0,0,0,0,0-.06,0-.08c-.09-.27.06.35,0,.35a.92.92,0,0,0-.07-.29,3.35,3.35,0,0,1,.09.42c0-.13,0,.11,0,.09l0,.06a.43.43,0,0,1,0,.21.63.63,0,0,1,0-.15c0,.31-.1-.31-.08-.1,0-.11-.07-.32-.1-.4,0,.23-.07-.23-.05,0a2.83,2.83,0,0,1,.08.4v-.17l.05.34s0-.15,0-.11c0,.19,0,.13.06.33-.09-.35,0,.21,0,0l-.13-.57c-.08-.25,0,.3,0,.17l0,.09c0,.23,0,0,0,.14,0-.2-.06-.27-.09-.38a2,2,0,0,0,.05.37l-.07-.25c0-.09.09.56,0,.5s-.08-.35-.1-.5c0,0,0,0,0,.1,0-.12,0,.27,0,.08a2.09,2.09,0,0,1,.05.28s0-.1,0-.1a2.27,2.27,0,0,0,.07.35c-.17-.6-.07.06-.21-.45a.26.26,0,0,1,0,.15c0-.06,0-.1,0-.08-.07-.17.11.56,0,.37A1.28,1.28,0,0,1,4.18,23c-.15-.63,0,.09-.12-.27v0c-.06-.21,0,.25,0,.21s0-.06,0-.1a2.29,2.29,0,0,1,.05.54c-.05-.25,0-.14-.08-.39,0,0,.09.41.09.48,0-.13-.08-.25-.14-.52l0,0c-.09-.34,0,0,0,0l0-.15c0,.06.06.44,0,.42l0,.11c.06.39-.07-.21,0,.08l-.09-.39c0,.1,0,.39,0,.46-.05-.29-.06-.44-.08-.61,0,0,0,0,0,.23,0,0,0-.14,0-.08,0,.31.07.46,0,.46-.16-.75-.1-.18-.24-.75,0,.28-.1-.1-.14,0,.15.58,0,0,.13.62,0,0,0,0,0,0l-.11-.35a1.76,1.76,0,0,1-.05-.27,2.54,2.54,0,0,1-.12-.4c.05.21.06.3,0,.23l.08.27c0,.32-.14-.5-.1-.18l0-.19c0,.12-.07,0,0,.5,0-.07,0-.23-.06-.28s0,.53-.07.24l0-.14s0,.27,0,.13,0-.15,0-.16,0,.26,0,.18l0-.16c-.08-.19,0,.41,0,.52a2.41,2.41,0,0,0-.19-.63v-.06c-.06-.05,0,.37,0,.55-.13-.46-.13-.18-.23-.43,0,.08.07.34.07.38s0,.3,0-.09h0c-.09-.39-.09-.28-.11-.29l.11.52c-.21-.74,0,.3-.22-.37,0,.13,0,.13,0,.26l-.06-.27c0-.07-.07-.1-.09,0l0-.19s.15.8.13.82l-.09-.41s-.15-.34-.1,0c0-.06,0-.18,0-.2s-.12-.27,0,.3c-.08-.37,0,0,0,.14l-.06-.28a4.09,4.09,0,0,1,.08.55s0-.22,0-.15c-.05-.14,0,.26,0,.12l0-.17s0,.07,0,.28-.05-.06-.11-.31c0,.15.07.35,0,.29a1.34,1.34,0,0,0,0-.18c-.07-.18,0,.32,0,.06a1.12,1.12,0,0,0,0-.16s0,0,0,0C2,23,2,23,1.91,22.64c0,.19.09.61,0,.49a.45.45,0,0,0,0-.08v0s0,0,0,0,0-.07,0-.07c0-.21,0-.11,0-.11.06.27,0,.23.1.45,0,0,0,0,0,0a0,0,0,0,0,0,0v0a0,0,0,0,1,0,0c0,.14,0,.26,0,.11,0,.18.07.36.09.44-.1-.38-.17-.58-.22-.81a1.54,1.54,0,0,0,.05.63c0,.07,0-.14-.06-.22a.6.6,0,0,0,0-.12,1.3,1.3,0,0,0,0,.42c-.06-.16-.06-.33-.08-.27l0-.11c-.18-.56.12.94-.11.21,0,.05,0,.07,0,.13-.14-.31-.08.34-.26-.17,0-.1,0,.13,0,.31l-.07-.29.06.34c0,.26-.21-.71-.14-.23l0,.2s0,.12-.06-.11c0,0,0,.21,0,.11l0-.15,0,.27a6.27,6.27,0,0,0-.17-.64,4.6,4.6,0,0,0,.09.56,2.11,2.11,0,0,1,.07.25v.08c.1.46.2.93.3,1.24l0-.29.05.22v0c.05.21,0,0,0-.11l.06.24-.07-.43c0,.17.06.35.1.45,0-.21-.1-.4-.11-.54.06.21.09.38.06.2,0,.11,0,.19,0,.24a1.56,1.56,0,0,0,0-.31c.06.26,0-.07.11.36,0-.1-.05-.34-.05-.36.1.52.05,0,.16.57-.09-.46,0-.21,0-.48,0,0,0,.12,0,.09s.05.18.08.26c-.08-.38-.08-.47-.12-.71.09.36.09.45.17.8-.07-.31,0-.31-.1-.57l.11.43c-.11-.48,0-.09-.06-.38.07.23.1.44.09.29A2.65,2.65,0,0,1,2.05,25.75Zm.28-.93h0Zm0,0h0l0-.19C2.33,24.68,2.35,24.73,2.37,24.81Zm-.5-1.89s0,0,0,.07v.07A.39.39,0,0,1,1.87,22.92Z"/><path class="cls-8" d="M1.94,23.29v0Z"/><path class="cls-8" d="M5.57,22.91h0v0Z"/><polygon class="cls-8" points="3.03 25.21 3.01 25.14 3.02 25.21 3.03 25.21"/><path class="cls-8" d="M6,23.8a.14.14,0,0,0,0,.07A.64.64,0,0,1,6,23.8Z"/><path class="cls-8" d="M6.1,23.84l0,.1A.64.64,0,0,0,6.1,23.84Z"/><path class="cls-8" d="M6.21,24l0-.11h0Z"/><path class="cls-8" d="M5.14,24.54h0Z"/><path class="cls-8" d="M5.34,23.82c0,.05,0,.1,0,.13S5.37,24,5.34,23.82Z"/><polygon class="cls-8" points="4.83 24.95 4.83 24.95 4.83 24.95 4.83 24.95"/><path class="cls-8" d="M5.34,24c0,.06,0,0,0,0S5.33,23.91,5.34,24Z"/><path class="cls-8" d="M6.54,24h0v0Z"/><path class="cls-8" d="M6.54,24v0S6.53,24,6.54,24Z"/><path class="cls-8" d="M6.53,23.88V24S6.55,24,6.53,23.88Z"/><path class="cls-8" d="M6.42,23.91l0,.1A.84.84,0,0,0,6.42,23.91Z"/><path class="cls-8" d="M6.4,24s.06.21.06.14l0-.08C6.47,24.16,6.37,23.78,6.4,24Z"/><path class="cls-8" d="M6,22.74l0,.08A1.16,1.16,0,0,1,6,22.54C5.89,22.24,6.05,22.78,6,22.74Z"/><path class="cls-8" d="M5.9,22.61a2.25,2.25,0,0,0-.05-.22A.79.79,0,0,0,5.9,22.61Z"/><path class="cls-8" d="M5.36,22.73l-.06-.25A2.17,2.17,0,0,0,5.36,22.73Z"/><polygon class="cls-8" points="5.54 24.04 5.58 24.19 5.54 23.96 5.54 24.04"/><polygon class="cls-8" points="5.08 22.27 5.08 22.24 5.08 22.33 5.08 22.27"/><path class="cls-8" d="M4.2,22.56l.07.31A2.18,2.18,0,0,0,4.2,22.56Z"/><path class="cls-8" d="M3.87,23c0-.15-.07-.24,0-.09S3.88,23,3.87,23Z"/><polygon class="cls-8" points="2.59 22.72 2.57 22.62 2.58 22.71 2.59 22.72"/><path class="cls-8" d="M12.55,24.06a.83.83,0,0,0,0-.24l0,.33Z"/><path class="cls-8" d="M12.49,23.45c0,.16,0,.44,0,.75l0-.57s0,.11,0,.23c0-.08,0,.07,0-.13s0-.27,0-.06Z"/><path class="cls-8" d="M11.51,22.94v0S11.52,23,11.51,22.94Z"/><path class="cls-8" d="M10.9,22.76s0,0,0-.07A.15.15,0,0,0,10.9,22.76Z"/><path class="cls-8" d="M10.8,22.4v0S10.8,22.37,10.8,22.4Z"/><path class="cls-8" d="M11.51,22.94v-.1A.28.28,0,0,0,11.51,22.94Z"/><path class="cls-8" d="M12.34,24.25v0Z"/><path class="cls-8" d="M11.79,22.67h0v0Z"/><path class="cls-8" d="M12,22.62s0,.27,0,.39a1,1,0,0,1,0-.19Z"/><path class="cls-8" d="M12.32,23.11v0Z"/><path class="cls-8" d="M11.64,22.61v0Z"/><path class="cls-8" d="M5.88,24.75v0Z"/><polygon class="cls-8" points="5.6 23.36 5.6 23.35 5.6 23.19 5.6 23.36"/><path class="cls-8" d="M10.61,22Z"/><path class="cls-8" d="M8.84,22.25c0,.26,0,.33,0,.61C8.84,22.75,8.86,22.42,8.84,22.25Z"/><path class="cls-8" d="M12.34,24.21h0S12.34,24.22,12.34,24.21Z"/><path class="cls-8" d="M8.84,22.86h0v0Z"/><path class="cls-8" d="M10.16,22.21v0Z"/><path class="cls-8" d="M10.49,22.61v0Z"/><path class="cls-8" d="M10,22.61s0-.06,0,0v0S10,22.56,10,22.61Z"/><path class="cls-8" d="M9.81,22.61v0Z"/><path class="cls-8" d="M6.41,24.61v-.25C6.4,24.56,6.38,24.63,6.41,24.61Z"/><path class="cls-8" d="M12.35,24.09v.12h0Z"/><path class="cls-8" d="M10,24.82l0,0S10,24.82,10,24.82Z"/><path class="cls-8" d="M7.67,24.57v0S7.67,24.6,7.67,24.57Z"/><path class="cls-8" d="M9.87,24.83l0-.2v.07Z"/><path class="cls-8" d="M6.4,24.36Z"/><path class="cls-8" d="M6.23,25a3.41,3.41,0,0,0,0-.58c0-.1,0,.28,0,.46,0-.09,0-.43,0-.42v.16c0-.29.06,0,.08-.38v.09l0-.51s0-.23,0,0c0,0,0,.09,0,.17v-.11a3.78,3.78,0,0,1,0,.38c0-.12,0-.4.06-.3,0,.33,0,.11,0,.41l0-.13c0,.54,0,0,0,.54,0,.1,0-.18.08-.08v-.46c0-.34.07.85.09.4,0-.23,0-.66,0-.43v.38s0-.55.05-.29,0,.12,0,.17c0,.3,0-.22,0-.22v.34c0-.05.08-.3.12-.36,0,.1,0,.21,0,.31,0-.17.12,0,.17.24l0-.29a1.14,1.14,0,0,1,0,.19c0,.11,0-.19,0-.3a.85.85,0,0,1,0,.26c0-.25.1-.54.14-.23v.09c0,.12,0-.6.06-.33v.05c.06.13.13-.14.19.31,0-.43.06.18.06-.41a3.5,3.5,0,0,0,.09.6s0-.37,0-.43v.31l0-.33,0,.37V24.6s0-.14,0-.23.06.22.07.38l0-.26c0,.12,0,.16,0,.24,0-.31,0,.33,0,0v-.25c0,.19,0,.19.07.11v.21c0,.06.09-.1.14-.1a2.08,2.08,0,0,1,0-.5v.33a2.27,2.27,0,0,1,0-.37,3.44,3.44,0,0,1,0,.47l0-.11v.27c0-.2.05.33.06,0v.1c.05,0,.07-.11.11-.13,0-.28,0-.22,0-.45,0,.09.07.31.1.29a2.62,2.62,0,0,0,0-.41,3.57,3.57,0,0,1,0,.42s.06-.05.11-.26a1,1,0,0,1,0-.24s0,.11,0,.23v0c.06-.38.15.75.19.21v0l0-.28s0,.19,0,.35c0-.43.09.06.13-.22,0,.75.12-.06.17.43v-.18c0-.18,0,.1,0,.14,0-.14,0-.16,0-.26s.22.26.32.42,0-.92.07-.49v.33c.07-.4.16,0,.23-.33a.67.67,0,0,1,0,.18c0,.24.06,0,.06-.19,0,0,0,.18,0,.28s0-.31.05-.07c0,0,0,.08,0,.1s0,0,0-.25c0,.13.05-.12.07,0,0-.31.05.15.06-.29,0,.45.05.37.07.15,0,.14,0,.15,0,.33,0,0,0-.09,0-.32,0,.54.08-.43.1.26a3.14,3.14,0,0,1,.17-.52c0,.46-.06.05-.06.52,0-.18.08-.57.14-.46a1.32,1.32,0,0,1,0,.27c.06-.18.1,0,.15-.2,0,0,0,.08,0,.12s0,.06,0-.14v.06c0-.3,0-.63,0-.78,0,.58.05.14,0,.89a1.8,1.8,0,0,0,0-.28,1.18,1.18,0,0,1,0,.28c0-.11,0-.33.06-.33v.26c0-.19,0-.39.05-.3v.13s.07-.51.12-.33a4.28,4.28,0,0,0,0,.52l0-.11v-.19s0-.26.06-.14v.15l0-.07,0-.14c0-.19,0-.47,0-.37s0,0,0,.23h0c0-.12,0-.24,0-.15v.49c0-.31.06-.09.07-.42v.06a2,2,0,0,1,0,.28s0-.48,0-.27v.1c0,.1.07-.17.1,0,0,.37,0,.09,0,.41.05-.07.11-.45.15-.37v0c0-.53,0,.27.06,0v.23c0,.09.07-.13.12-.3V24c0,.12,0,.07.06.13a2.28,2.28,0,0,0,0-.31c0,.77.13-.42.17.23v.12l0-.13a2.92,2.92,0,0,0,0-.32c0-.13,0-.24,0-.24a2.09,2.09,0,0,0,0,.5v-.22c0,.41,0-.47,0-.19v.12c0-.06,0-.22,0-.19a3.16,3.16,0,0,1,0,.35s.05-.51.06-.24l0,.15c0,.31,0,.23,0,.28h0l0,.15v-.09c0-.7.06-.13.1-.58A3.88,3.88,0,0,0,12,24a1.13,1.13,0,0,1,0,.26c0-.24,0,.2.05-.16a1.11,1.11,0,0,1,0,.25,1.38,1.38,0,0,0,0-.29c0-.33.07.4.12-.05,0-.19.06-.52.1-.68a2,2,0,0,1,0,.35c0,.14,0,.12.05,0V24s0-.35,0-.21l0,.39.06-.36a3.41,3.41,0,0,1,0,.37,1.62,1.62,0,0,0,.07-.42l0-.1a2.55,2.55,0,0,1,0,.28c0,.21,0-.09,0-.19v-.06c0-.57,0,.09-.08.06l0-.42,0,.35a1.81,1.81,0,0,1,0-.41c0-.2,0,.15,0-.08v-.07l0,.13c0-.09,0-.3,0-.24,0-.24-.06.31-.06,0v0a5.38,5.38,0,0,0-.05.67v-.45s0,0,0-.16c0,.21,0,.14,0,.33,0-.27-.07.13-.06-.35,0,.23,0,.18,0,.34,0-.53,0,.09-.05-.15a1.56,1.56,0,0,0,0-.37c0,.46,0-.1-.05,0,0,.36,0,.15-.07.27a2.25,2.25,0,0,0-.08-.33V22.7c0,.37,0,.3-.06.37,0-.22,0-.3,0-.4h0a.88.88,0,0,1,0,.22v-.27s-.06.32-.09.14a8.09,8.09,0,0,1,0,.88c0-.14,0-.37,0-.43s0,.11,0,.06l0-.24c0-.1,0,.2,0,.18v-.3s0,.08,0,0a1.27,1.27,0,0,1,0-.3,2,2,0,0,1,0,.29s0-.24,0-.34a1.57,1.57,0,0,0,0,.29,1.1,1.1,0,0,1,0-.22c0,.13-.06,0-.05.36v0h0c0,.29-.09-.17-.13,0v-.1c0,.11-.06.07-.08.28,0,0,0-.18,0-.3,0,.08,0,.19-.05,0s0-.15,0-.12,0-.25-.06,0c0-.26,0-.32,0-.25v.18s0,0,0,0v-.34c0-.4-.1.69-.13,0,0,.23,0,.16,0,.43,0,0-.05-.52-.05-.52,0-.19,0,.48-.07.36a2.53,2.53,0,0,1,0,.55,3.88,3.88,0,0,1,0-.6s0,0,0,.07a.62.62,0,0,0,0-.22v.12a.8.8,0,0,1,0-.31.73.73,0,0,0,0,.26c0-.17,0,0-.07-.12v.2c-.05-.14,0,.23-.06.28,0-.18,0-.43,0-.28a1.84,1.84,0,0,1,0-.41c0,.23-.06-.15-.07-.19v-.1c0,.06,0,.06,0,.06v.23a.33.33,0,0,1,0-.14c0,.16,0,.4,0,.61,0-.12,0,.13,0-.19,0,.11,0-.31,0-.36s0,0,0,0,0-.06,0-.08c0-.28,0,.35-.06.35,0-.18,0-.34,0-.3a1.59,1.59,0,0,1,0,.43c0-.14,0,.1,0,.09l0,.06c0,.18,0,.16,0,.21,0-.14,0-.09,0-.15,0,.31,0-.33-.06-.12V22.2c0,.23,0-.24-.07-.05a1.86,1.86,0,0,1,0,.41l.05-.17,0,.35s0-.15,0-.11a1.79,1.79,0,0,0,0,.33c0-.36,0,.21-.06,0v-.59c0-.26-.06.3-.11.15l0,.11c0,.23,0,0-.05.12,0-.19,0-.26,0-.39,0,.15,0,0,0,.38l0-.26c0-.1,0,.57-.08.5a3.79,3.79,0,0,1,0-.51s0,0,0,.1c0-.12,0,.27,0,.08a1.43,1.43,0,0,1,0,.28v-.1a2.85,2.85,0,0,0,0,.35c0-.62-.1.05-.13-.48,0,.06-.06.13-.09.14s0-.1,0-.08c0-.18,0,.57-.06.37s0-.18,0-.3c0-.65,0,.09-.07-.29v0c0-.22-.05.25-.08.2v-.1a1.75,1.75,0,0,1-.09.54,2.54,2.54,0,0,0,0-.39,4.19,4.19,0,0,1,0,.48,5.24,5.24,0,0,1,0-.53l0,0c0-.36,0,0,0,0v-.15c0,.05,0,.44-.08.41V23c0,.39,0-.22,0,.07v-.39c0,.09,0,.38-.07.45a5.65,5.65,0,0,1,.06-.61s-.05,0-.06.22c0,0,0-.14,0-.07,0,.31,0,.46-.07.45,0-.76-.08-.19-.1-.78,0,.28-.11-.12-.17-.08,0,.6,0,0,0,.63,0,0,0,0,0,0l-.05-.37c0-.17,0-.13,0-.27a3.2,3.2,0,0,1,0-.42c0,.22,0,.31,0,.23l0,.28c0,.33,0-.51-.09-.19l0-.19c0,.11-.09,0-.11.49a2.8,2.8,0,0,1,0-.29c-.05-.07-.11.53-.16.23v-.15s0,.28,0,.13a.81.81,0,0,0,0-.16c0,.05,0,.26,0,.17v-.16c0-.2-.07.41-.12.51A2.14,2.14,0,0,0,8.18,22V22c-.06-.05-.1.37-.15.54,0-.48-.13-.2-.19-.47a2.52,2.52,0,0,1,0,.39c0-.09,0,.31,0-.1h0c0-.4,0-.29-.07-.3v.53c-.07-.77-.15.28-.19-.41,0,.13,0,.13,0,.27v-.29c0-.07-.06-.11-.1,0v-.2s0,.82,0,.83v-.42s-.1-.36-.14,0v-.2s-.08-.29-.07.29c0-.37,0,0-.07.13v-.28a2.42,2.42,0,0,1,0,.56s0-.23,0-.16c0-.14,0,.27,0,.12v-.18s0,.08,0,.28,0-.07-.06-.32c0,.16,0,.36,0,.29v-.18c0-.19,0,.32-.08,0v-.17s.06,0,0,0c0-.25,0-.3,0-.65,0,.19,0,.61-.06.49v-.12s0,0,0,0l0-.07c0-.22,0-.12,0-.13,0,.28,0,.24,0,.47a.09.09,0,0,1,0-.05v0s0,0,0,0,0,.26,0,.11v.45l-.08-.84a1.4,1.4,0,0,0-.1.63c0,.07,0-.15,0-.24a.38.38,0,0,0,0-.12,1.29,1.29,0,0,0-.06.43c0-.17,0-.34,0-.28v-.12c-.09-.59-.1.95-.2.19a.53.53,0,0,1,0,.13c-.1-.33-.18.31-.29-.22,0-.1,0,.13,0,.31v-.3l0,.35c0,.25-.09-.74-.12-.26V23s0,.12-.06-.11c0,0,0,.21,0,.11v-.16l0,.27c0-.11,0-.63-.06-.66a3.33,3.33,0,0,0,0,.57,1.05,1.05,0,0,1,0,.25l0,.09a11.06,11.06,0,0,0,.07,1.26l0-.28v.22l0,0c0,.21,0,0,0-.11a1.21,1.21,0,0,0,0,.25v-.44c0,.18,0,.36,0,.46,0-.21,0-.41,0-.54,0,.21,0,.38,0,.2a1,1,0,0,1,0,.25c0-.15,0-.06,0-.31,0,.26,0-.07.06.37a1.6,1.6,0,0,1,0-.36c0,.53,0,0,0,.59,0-.47.06-.21.09-.47a.31.31,0,0,1,0,.09,1.42,1.42,0,0,1,0,.27,6.45,6.45,0,0,1,0-.72c0,.38,0,.46,0,.82,0-.32,0-.32,0-.58,0,.23,0,.11,0,.44,0-.49,0-.09,0-.39,0,.25,0,.46,0,.31A1.61,1.61,0,0,1,6.23,25Zm.6-.85h0v0Zm0,0s0,0,0,0a.49.49,0,0,1,0-.19A1.68,1.68,0,0,0,6.88,24.17Zm-.15-1.94s0,0,0,.07a0,0,0,0,0,0,0v-.1Z"/><path class="cls-8" d="M6.72,22.59v0Z"/><path class="cls-8" d="M11.52,23h0v0Z"/><polygon class="cls-8" points="7.61 24.71 7.61 24.64 7.61 24.7 7.61 24.71"/><path class="cls-8" d="M11.8,24v0Z"/><path class="cls-8" d="M11.92,24l0,.1Z"/><path class="cls-8" d="M12,24.15V24h0Z"/><path class="cls-8" d="M10.49,24.49h0C10.48,24.56,10.48,24.53,10.49,24.49Z"/><path class="cls-8" d="M11,23.83l0,.13S11,24,11,23.83Z"/><polygon class="cls-8" points="9.98 24.83 9.98 24.82 9.98 24.82 9.98 24.83"/><path class="cls-8" d="M10.91,24c0,.05,0,0,0,0S10.92,23.91,10.91,24Z"/><path class="cls-8" d="M12.43,24.28h0v0Z"/><path class="cls-8" d="M12.43,24.24v0Z"/><path class="cls-8" d="M12.45,24.14v.07S12.45,24.22,12.45,24.14Z"/><path class="cls-8" d="M12.3,24.15v0Z"/><path class="cls-8" d="M12.26,24.18s0,.21,0,.15v-.08C12.29,24.4,12.28,24,12.26,24.18Z"/><path class="cls-8" d="M12.13,22.92l0,.08a1.23,1.23,0,0,1,0-.28C12.13,22.39,12.17,23,12.13,22.92Z"/><path class="cls-8" d="M12,22.76a.81.81,0,0,0,0-.22A.81.81,0,0,0,12,22.76Z"/><path class="cls-8" d="M11.3,22.76v-.25A1.82,1.82,0,0,0,11.3,22.76Z"/><polygon class="cls-8" points="11.14 24.09 11.15 24.24 11.16 24.01 11.14 24.09"/><polygon class="cls-8" points="11.08 22.26 11.08 22.23 11.06 22.32 11.08 22.26"/><path class="cls-8" d="M9.84,22.36v.32C9.86,22.62,9.86,22.27,9.84,22.36Z"/><path class="cls-8" d="M9.31,22.68c0-.15,0-.25,0-.1S9.31,22.73,9.31,22.68Z"/><polygon class="cls-8" points="7.71 22.18 7.72 22.07 7.71 22.16 7.71 22.18"/></g></g></svg>